<svg width="45" height="45" viewBox="0 0 45 45" fill="none" xmlns="http://www.w3.org/2000/svg">
<path d="M36 5.6269C32.3198 2.72904 27.6747 1 22.6255 1C10.682 1 1 10.674 1 22.6076C1 27.6659 2.73952 32.3183 5.65352 36" stroke="#2C2C2C" stroke-width="1.6" stroke-miterlimit="10" stroke-linecap="round" stroke-linejoin="round"/>
<path d="M8 38.1388C11.8229 41.771 16.9932 44 22.6846 44C34.4568 44 44 34.4632 44 22.699C44 16.9994 41.76 11.8227 38.1117 8" stroke="#2C2C2C" stroke-width="1.6" stroke-miterlimit="10" stroke-linecap="round" stroke-linejoin="round"/>
<path d="M30.8726 14.2367C30.6018 12.991 30.2151 11.4914 29.7689 10.2005C29.4706 9.33751 28.7191 8.68656 27.7865 8.48481C26.3719 8.17886 24.7398 8 22.5 8C20.2602 8 18.6281 8.17878 17.2135 8.48481C16.2809 8.68656 15.5294 9.33742 15.2311 10.2005C14.7849 11.4913 14.3981 12.9909 14.1274 14.2367C11.0041 14.7256 9 15.4818 9 16.3307C9 16.8835 9.84994 17.3971 11.3056 17.8231C12.6989 18.231 14.6471 18.5585 16.9361 18.7635C18.6327 18.9154 20.5164 19 22.5 19C24.4837 19 26.3673 18.9154 28.0639 18.7635C30.3529 18.5585 32.301 18.2309 33.6944 17.8231C35.1501 17.3971 36 16.8835 36 16.3307C36 15.4818 33.9959 14.7256 30.8726 14.2367Z" stroke="#2C2C2C" stroke-width="1.6" stroke-miterlimit="10" stroke-linecap="round" stroke-linejoin="round"/>
<path d="M34 40C33.5946 35.6762 30.821 32.0482 27 30.4522C28.2854 29.9116 29.4138 29.1296 30.3096 28.1504C31.6943 26.637 32.5245 24.6535 32.5245 22.3665C32.5245 21.1814 32.301 20.047 31.8934 19" stroke="#2C2C2C" stroke-width="1.6" stroke-miterlimit="10" stroke-linecap="round" stroke-linejoin="round"/>
<path d="M13.1368 19C12.7302 20.0483 12.5072 21.1839 12.5072 22.3703C12.5072 24.6598 13.3354 26.6454 14.7167 28.1606C15.6061 29.1363 16.7253 29.9162 18 30.4571C14.1854 32.0478 11.4129 35.6745 11 40" stroke="#2C2C2C" stroke-width="1.6" stroke-miterlimit="10" stroke-linecap="round" stroke-linejoin="round"/>
</svg>
