<svg width="50" height="51" viewBox="0 0 50 51" fill="none" xmlns="http://www.w3.org/2000/svg">
<g clip-path="url(#clip0_134_514)">
<path d="M27.5201 29.2347C27.5201 27.616 26.4695 26.1843 24.8026 25.4428C25.4414 23.7541 25.2277 21.9417 24.0851 20.7764C22.9326 19.6008 21.1351 19.391 19.4675 20.063C18.7382 18.3737 17.3369 17.3091 15.757 17.3091C14.1707 17.3091 12.7664 18.3814 12.04 20.081C10.3844 19.4294 8.60754 19.648 7.46509 20.8128C6.31323 21.9877 6.10693 23.8212 6.76636 25.5227C5.1095 26.2661 4.06641 27.6947 4.06641 29.3069C4.06641 30.9256 5.11645 32.3567 6.78137 33.0988C6.61633 33.5323 6.50391 33.9792 6.45325 34.4299C6.3064 35.7425 6.67822 36.927 7.50134 37.7654C8.2063 38.4844 9.16003 38.8663 10.2289 38.8663C10.4064 38.8663 10.5876 38.8555 10.7714 38.8344C11.2283 38.7809 11.6814 38.6616 12.1201 38.4844C12.8495 40.1713 14.2489 41.2333 15.8282 41.2333C17.4138 41.2333 18.8176 40.1622 19.5444 38.464C19.9701 38.6323 20.4082 38.747 20.8501 38.7987C21.0338 38.8197 21.2145 38.8306 21.3926 38.8306C22.4613 38.8306 23.415 38.4487 24.1201 37.7296C25.272 36.5547 25.4783 34.7213 24.8195 33.0197C26.4763 32.2763 27.5201 30.847 27.5201 29.2347ZM23.202 21.6778C24.3721 22.8719 24.0758 25.1171 22.5408 26.6822C21.9464 27.2884 20.8014 27.8233 19.3501 28.1836C19.2351 27.7941 19.0601 27.4313 18.8363 27.1055L20.8225 25.0796C21.0669 24.8303 21.0669 24.4274 20.8225 24.1781C20.5781 23.9289 20.1831 23.9289 19.9387 24.1781L17.9575 26.199C17.6162 25.9478 17.2325 25.7546 16.8187 25.6328C17.1725 24.141 17.6993 22.9598 18.2957 22.3523C19.8307 20.7872 22.0308 20.4844 23.202 21.6778ZM18.2583 29.271C18.2583 30.657 17.1527 31.7853 15.7939 31.7853C14.4352 31.7853 13.3296 30.657 13.3296 29.271C13.3296 27.8851 14.4346 26.7574 15.7939 26.7574C17.1533 26.7574 18.2583 27.8851 18.2583 29.271ZM15.7576 18.5841C16.8545 18.5841 17.8401 19.3899 18.3595 20.6611C18.0282 20.8874 17.7089 21.1475 17.412 21.4503C16.5989 22.2797 16.0845 23.5929 15.7701 24.7016C15.4558 23.607 14.9446 22.3085 14.1389 21.4867C13.8302 21.1718 13.4977 20.9034 13.1521 20.6713C13.6702 19.3937 14.6576 18.5841 15.7576 18.5841ZM8.34888 21.7142C9.51892 20.5195 11.7195 20.8217 13.2551 22.388C13.847 22.9924 14.3719 24.1647 14.7251 25.6438C14.3439 25.7611 13.9889 25.939 13.67 26.1671L11.6832 24.1405C11.4388 23.8913 11.0438 23.8913 10.7994 24.1405C10.5551 24.3898 10.5551 24.7927 10.7994 25.042L12.7814 27.0628C12.5352 27.411 12.3457 27.8023 12.2263 28.2244C10.7644 27.8648 9.60693 27.3274 9.01013 26.7187C7.4751 25.1528 7.17883 22.9089 8.34888 21.7142ZM7.36133 31.9651C6.1095 31.4359 5.31702 30.4294 5.31702 29.3074C5.31641 28.1885 6.10645 27.1832 7.35266 26.6534C7.57458 26.9914 7.82959 27.3171 8.12646 27.6199C8.93958 28.4493 10.2246 28.9733 11.3134 29.2946C10.2278 29.6178 8.96521 30.1386 8.16211 30.9591C7.85632 31.271 7.59143 31.6101 7.36133 31.9651ZM10.6301 37.5675C9.73132 37.6727 8.93262 37.4222 8.38513 36.8638C7.83765 36.3053 7.59204 35.4925 7.69519 34.5739C7.80395 33.6011 8.28333 32.6371 9.04517 31.86C9.63953 31.2538 10.7852 30.7182 12.2365 30.3587C12.3514 30.7481 12.5265 31.111 12.7496 31.4373L10.7628 33.4639C10.5184 33.7131 10.5184 34.116 10.7628 34.3653C10.8846 34.4896 11.0447 34.5521 11.2047 34.5521C11.3647 34.5521 11.5247 34.4896 11.6466 34.3653L13.6285 32.3437C13.9697 32.5949 14.3529 32.7881 14.7673 32.9099C14.4142 34.4017 13.8873 35.5817 13.2911 36.1898C12.5289 36.967 11.5839 37.4566 10.6301 37.5675ZM15.8289 39.9581C14.7325 39.9581 13.7469 39.1529 13.2277 37.8818C13.5614 37.6529 13.8807 37.3916 14.1746 37.0919C14.9871 36.2631 15.5009 34.9518 15.8164 33.8412C16.1333 34.9479 16.6439 36.2357 17.4476 37.0561C17.7533 37.3679 18.0857 37.6382 18.4338 37.8728C17.9158 39.1492 16.9282 39.9581 15.8289 39.9581ZM23.2377 36.828C22.6902 37.3865 21.8921 37.6364 20.9927 37.5318C20.0389 37.4208 19.0939 36.9319 18.3314 36.1548C17.7377 35.5486 17.2126 34.38 16.8602 32.9003C17.2421 32.783 17.5978 32.6045 17.9177 32.3762L19.9039 34.4028C20.0258 34.5271 20.1858 34.5896 20.3458 34.5896C20.5059 34.5896 20.6658 34.5271 20.7877 34.4028C21.0321 34.1535 21.0321 33.7506 20.7877 33.5013L18.8065 31.4798C19.0521 31.1316 19.2422 30.7403 19.3608 30.3182C20.8234 30.6784 21.9808 31.2158 22.5771 31.8239C24.1113 33.3894 24.4076 35.634 23.2377 36.828ZM24.2339 31.888C24.012 31.5501 23.7577 31.2244 23.4608 30.9216C22.6477 30.0922 21.3621 29.5681 20.2739 29.2469C21.3595 28.9237 22.6221 28.4028 23.4252 27.5824C23.7339 27.2675 23.9971 26.9284 24.2246 26.5759C25.4771 27.1057 26.2709 28.1128 26.2709 29.2348C26.2708 30.3529 25.4807 31.3582 24.2339 31.888Z" fill="black"/>
<path d="M49.375 0.000976562H17.2181C16.8726 0.000976562 16.5931 0.285984 16.5931 0.638477V6.6641H0.625C0.279419 6.6641 0 6.9491 0 7.3016V50.3615C0 50.714 0.279419 50.999 0.625 50.999H31.5593C31.9049 50.999 32.1843 50.714 32.1843 50.3615V46.184H49.375C49.7206 46.184 50 45.899 50 45.5465V0.638477C50 0.285859 49.7206 0.000976562 49.375 0.000976562ZM17.8431 2.20732L22.0963 6.6641H17.8431V2.20732ZM30.9343 49.724H1.25V7.9391H30.9343V49.724ZM31.5593 6.6641H23.8406L18.6987 1.27598H47.8674L33.1088 16.3541L32.1843 15.38V7.3016C32.1843 6.9491 31.905 6.6641 31.5593 6.6641ZM35.9974 21.231C36.9937 22.2753 36.9937 23.9103 35.998 24.9534L32.1843 28.9453V17.2129L35.9974 21.231ZM32.1843 44.909V30.7718L33.095 29.818L47.8668 44.909H32.1843ZM48.75 44.0057L33.9681 28.9045L36.8932 25.8426C38.3651 24.3006 38.3651 21.8844 36.8944 20.343L33.9781 17.2703L48.75 2.17869V44.0057Z" fill="black"/>
</g>
<defs>
<clipPath id="clip0_134_514">
<rect width="50" height="51" fill="white"/>
</clipPath>
</defs>
</svg>
