<svg width="53" height="53" viewBox="0 0 53 53" fill="none" xmlns="http://www.w3.org/2000/svg">
<path d="M25.4465 29.6694V32.1564C25.4465 33.0355 26.0074 33.8164 26.8405 34.0968L35.3217 36.9502C35.727 37.0863 36.1098 37.2623 36.468 37.4721" stroke="black" stroke-width="1.5" stroke-miterlimit="10" stroke-linecap="round" stroke-linejoin="round"/>
<path d="M15.058 29.6709V32.2868C15.058 33.0882 14.5462 33.7995 13.7869 34.0553L5.1828 36.9506C2.68356 37.7919 1 40.1335 1 42.7709V51.8652" stroke="black" stroke-width="1.5" stroke-miterlimit="10" stroke-linecap="round" stroke-linejoin="round"/>
<path d="M13.8398 34.0347C15.1967 36.1408 17.5607 37.5365 20.2522 37.5365C22.9462 37.5365 25.3121 36.1381 26.6684 34.0288" stroke="black" stroke-width="1.5" stroke-miterlimit="10" stroke-linecap="round" stroke-linejoin="round"/>
<path d="M36.8108 47.729H31.8462" stroke="black" stroke-width="1.5" stroke-miterlimit="10" stroke-linecap="round" stroke-linejoin="round"/>
<path d="M1.09351 47.7295H8.65816" stroke="black" stroke-width="1.5" stroke-miterlimit="10" stroke-linecap="round" stroke-linejoin="round"/>
<path d="M8.65784 44.1704V51.8653" stroke="black" stroke-width="1.5" stroke-miterlimit="10" stroke-linecap="round" stroke-linejoin="round"/>
<path d="M8.65784 35.7808V40.5879" stroke="black" stroke-width="1.5" stroke-miterlimit="10" stroke-linecap="round" stroke-linejoin="round"/>
<path d="M28.4241 34.6294V43.293C28.4241 43.6887 28.1033 44.0094 27.7077 44.0094H12.7964C12.4007 44.0094 12.08 43.6887 12.08 43.293V34.6294" stroke="black" stroke-width="1.5" stroke-miterlimit="10" stroke-linecap="round" stroke-linejoin="round"/>
<path d="M31.8462 51.8648V35.7808" stroke="black" stroke-width="1.5" stroke-miterlimit="10" stroke-linecap="round" stroke-linejoin="round"/>
<path d="M30.0697 21.2568H30.8148C31.5823 21.2568 32.2783 20.9457 32.7818 20.4421C33.2853 19.9386 33.5965 19.2437 33.5965 18.4751C33.5965 16.9389 32.3509 15.6934 30.8148 15.6934H30.0697" stroke="black" stroke-width="1.5" stroke-miterlimit="10" stroke-linecap="round" stroke-linejoin="round"/>
<path d="M10.4349 21.2568H9.68984C8.92123 21.2568 8.22529 20.9457 7.72176 20.4421C7.21823 19.9386 6.9071 19.2437 6.9071 18.4751C6.9071 16.9389 8.15263 15.6934 9.68984 15.6934H10.4349" stroke="black" stroke-width="1.5" stroke-miterlimit="10" stroke-linecap="round" stroke-linejoin="round"/>
<path d="M30.0696 15.6934C30.0696 17.6799 30.0696 19.7994 30.0696 21.3387C30.0696 26.7608 25.674 31.1555 20.2518 31.1555C17.5407 31.1555 15.0865 30.0573 13.3108 28.2806C11.5341 26.504 10.4349 24.0497 10.4349 21.3387V15.6934" stroke="black" stroke-width="1.5" stroke-miterlimit="10" stroke-linecap="round" stroke-linejoin="round"/>
<path d="M18.3406 27.1394C18.6314 27.3021 19.3496 27.6235 20.2517 27.6081C21.2358 27.5912 21.8861 27.1831 22.1629 27.001" stroke="black" stroke-width="1.5" stroke-miterlimit="10" stroke-linecap="round" stroke-linejoin="round"/>
<path d="M23.6865 18.5692C23.9662 18.467 24.313 18.3718 24.7163 18.3278C25.7414 18.216 26.5699 18.4959 27.0182 18.6899" stroke="black" stroke-width="1.5" stroke-miterlimit="10" stroke-linecap="round" stroke-linejoin="round"/>
<path d="M16.818 18.5692C16.5383 18.467 16.1916 18.3718 15.7882 18.3278C14.7632 18.216 13.9347 18.4959 13.4863 18.6899" stroke="black" stroke-width="1.5" stroke-miterlimit="10" stroke-linecap="round" stroke-linejoin="round"/>
<path d="M25.3521 21.1455V22.8119" stroke="black" stroke-width="1.5" stroke-miterlimit="10" stroke-linecap="round" stroke-linejoin="round"/>
<path d="M15.152 21.1455V22.8119" stroke="black" stroke-width="1.5" stroke-miterlimit="10" stroke-linecap="round" stroke-linejoin="round"/>
<path d="M10.4351 12.0624V5.77742C10.4351 3.13899 12.574 1 15.2125 1H25.2923C27.9308 1 30.0697 3.13899 30.0697 5.77742V12.0624" stroke="black" stroke-width="1.5" stroke-miterlimit="10" stroke-linecap="round" stroke-linejoin="round"/>
<path d="M22.734 12.062H32.1167C32.682 12.062 33.1402 12.5202 33.1402 13.0855V14.6696C33.1402 15.2349 32.682 15.6931 32.1167 15.6931H8.3888C7.82355 15.6931 7.36536 15.2349 7.36536 14.6696V13.0855C7.36536 12.5202 7.82355 12.062 8.3888 12.062H19.1519" stroke="black" stroke-width="1.5" stroke-miterlimit="10" stroke-linecap="round" stroke-linejoin="round"/>
<path d="M33.1136 28.1199C32.8946 27.4864 33.0051 26.7577 33.4503 26.2163C33.4943 26.1621 33.5414 26.1119 33.5895 26.0638C33.7635 25.8919 33.7583 25.6135 33.5844 25.4406C33.5833 25.4395 33.5813 25.4385 33.5803 25.4375C32.785 24.6413 32.8096 23.3353 33.656 22.5719C34.3755 21.922 35.4828 21.8974 36.231 22.5145C36.2842 22.5586 36.3354 22.6046 36.3824 22.6527C36.5534 22.8257 36.8307 22.8257 37.0006 22.6527C37.0477 22.6046 37.0988 22.5586 37.1521 22.5145C37.5307 22.2024 38.0015 22.054 38.4672 22.0683" stroke="black" stroke-width="1.5" stroke-miterlimit="10" stroke-linecap="round" stroke-linejoin="round"/>
<circle cx="36.0984" cy="25.7549" r="0.76758" fill="black"/>
<path d="M46.2533 22.0683C46.719 22.054 47.1887 22.2024 47.5674 22.5145C47.6216 22.5586 47.6718 22.6046 47.7199 22.6527C47.8898 22.8257 48.1671 22.8257 48.337 22.6527C48.3851 22.6046 48.4353 22.5586 48.4885 22.5145C49.2376 21.8974 50.345 21.922 51.0645 22.5719C51.9109 23.3353 51.9354 24.6413 51.1402 25.4375C51.1382 25.4385 51.1372 25.4395 51.1361 25.4406C50.9601 25.6156 50.9601 25.895 51.1361 26.069C51.1372 26.071 51.1382 26.072 51.1402 26.073C51.6939 26.6267 51.8505 27.4281 51.6079 28.121" stroke="black" stroke-width="1.5" stroke-miterlimit="10" stroke-linecap="round" stroke-linejoin="round"/>
<circle cx="48.4161" cy="25.438" r="0.76758" fill="black"/>
<path d="M45.6821 27.1802C46.4589 26.3635 46.4456 25.072 45.6443 24.2706C45.6432 24.2696 45.6422 24.2686 45.6402 24.2675C45.4549 24.0823 45.4549 23.7886 45.6402 23.6033C45.6422 23.6023 45.6432 23.6013 45.6443 23.5992C46.4845 22.76 46.4579 21.3814 45.5655 20.575C44.805 19.8893 43.6363 19.8626 42.8462 20.5135C42.7899 20.5606 42.7367 20.6098 42.6865 20.6599C42.5064 20.8421 42.2137 20.8421 42.0336 20.6599C41.9834 20.6098 41.9302 20.5606 41.8739 20.5135C41.0838 19.8626 39.915 19.8893 39.1546 20.575C38.2612 21.3814 38.2356 22.76 39.0748 23.5992C39.0768 23.6013 39.0779 23.6023 39.0789 23.6033C39.2631 23.7865 39.2682 24.0802 39.085 24.2614C39.0339 24.3115 38.9847 24.3658 38.9377 24.4221C38.2878 25.2132 38.3134 26.382 39.0001 27.1413C39.0124 27.1546 39.0247 27.168 39.0369 27.1802" stroke="black" stroke-width="1.5" stroke-miterlimit="10" stroke-linecap="round" stroke-linejoin="round"/>
<circle cx="42.36" cy="23.9351" r="0.76758" fill="black"/>
<path d="M46.7986 41.0582L51.8359 28.6316C51.925 28.4105 51.7981 28.1618 51.5657 28.1076C49.0962 27.5294 45.8785 27.0207 42.1092 27.0442C38.566 27.0657 35.5254 27.5519 33.153 28.1076C32.9217 28.1618 32.7938 28.4105 32.8839 28.6316L37.9212 41.0572" stroke="black" stroke-width="1.5" stroke-miterlimit="10" stroke-linecap="round" stroke-linejoin="round"/>
<path d="M46.7214 44.2256L48.6362 49.875C48.7181 50.1134 48.6065 50.3744 48.3793 50.4839C47.186 51.0611 45.0931 51.8584 42.3912 51.8645C39.6576 51.8707 37.5401 51.0642 36.3416 50.4839C36.1144 50.3744 36.0029 50.1134 36.0837 49.875L37.9986 44.2256" stroke="black" stroke-width="1.5" stroke-miterlimit="10" stroke-linecap="round" stroke-linejoin="round"/>
<path d="M46.3604 44.2655H38.3594C37.4572 44.2655 36.7257 43.534 36.7257 42.6318C36.7257 41.7295 37.4572 40.998 38.3594 40.998H46.3605C47.2627 40.998 47.9942 41.7295 47.9942 42.6318C47.9942 43.534 47.2627 44.2655 46.3604 44.2655Z" stroke="black" stroke-width="1.5" stroke-miterlimit="10" stroke-linecap="round" stroke-linejoin="round"/>
</svg>
