<svg width="52" height="52" viewBox="0 0 52 52" fill="none" xmlns="http://www.w3.org/2000/svg">
<g clip-path="url(#clip0_115_821)">
<path d="M44.8058 25.8968C44.8058 23.6582 43.2712 21.6745 40.8473 20.7045C41.8288 18.3658 41.5785 15.8256 39.9665 14.2137C38.3396 12.5881 35.7694 12.3475 33.4152 13.3589C32.4415 10.95 30.4629 9.42578 28.2333 9.42578C25.9967 9.42578 24.0148 10.9579 23.0438 13.3778C22.3892 13.1016 21.7113 12.9151 21.0269 12.837C19.2633 12.6343 17.6729 13.1432 16.5504 14.2651C14.9241 15.8914 14.6842 18.4609 15.6962 20.8164C13.2873 21.7901 11.7625 23.7687 11.7625 25.9982C11.7631 28.2368 13.2977 30.2213 15.7216 31.1905C14.7401 33.5292 14.991 36.0694 16.603 37.6814C17.5643 38.6426 18.8676 39.153 20.3308 39.153C20.5758 39.153 20.8254 39.1387 21.0783 39.1101C21.7841 39.0295 22.4829 38.8326 23.1564 38.542C24.1301 40.9476 26.1068 42.4699 28.3355 42.4699C30.5722 42.4699 32.5547 40.9378 33.5251 38.5179C34.1797 38.7941 34.8576 38.9806 35.542 39.0587C35.7956 39.0879 36.0445 39.1016 36.2889 39.1016C37.752 39.1016 39.0566 38.592 40.0173 37.6299C40.9077 36.7401 41.4135 35.5525 41.4804 34.1973C41.5317 33.1658 41.3133 32.0945 40.8739 31.0779C43.2822 30.1049 44.8058 28.127 44.8058 25.8968ZM39.0481 15.1335C40.8168 16.9022 40.3923 20.2028 38.1037 22.4914C36.7881 23.807 33.9839 24.6371 31.7616 24.9946C31.6564 24.611 31.4925 24.251 31.2748 23.9292L33.477 21.7263C33.7312 21.4721 33.7312 21.0613 33.477 20.8071C33.2229 20.553 32.812 20.553 32.5579 20.8071L30.3635 23.0021C30.0106 22.7526 29.6121 22.5667 29.1818 22.4561C29.5368 20.2214 30.3674 17.4011 31.6908 16.0776C33.9787 13.7899 37.28 13.3662 39.0481 15.1335ZM30.5935 25.9489C30.5935 27.2216 29.5575 28.2576 28.2848 28.2576C27.0114 28.2576 25.9754 27.2216 25.9754 25.9489C25.9754 24.6749 27.0114 23.6395 28.2848 23.6395C29.5575 23.6393 30.5935 24.6755 30.5935 25.9489ZM28.234 10.7258C29.9571 10.7258 31.4931 11.9946 32.2496 13.9771C31.7309 14.3079 31.2317 14.6973 30.7709 15.1587C29.4449 16.4848 28.6786 18.7 28.2528 20.4699C27.8244 18.7116 27.0594 16.5225 25.747 15.2101C25.2745 14.7376 24.7576 14.3301 24.2136 13.9881C24.9691 11.9991 26.507 10.7258 28.234 10.7258ZM17.47 15.1848C18.3065 14.3483 19.5156 13.9718 20.8798 14.1291C22.2975 14.291 23.6996 15.0014 24.8273 16.1292C26.1429 17.4441 26.9736 20.2475 27.3311 22.4712C26.9469 22.5765 26.5869 22.7404 26.2651 22.9587L24.0628 20.7565C23.8087 20.5023 23.3978 20.5023 23.1437 20.7565C22.8895 21.0106 22.8895 21.4215 23.1437 21.6756L25.3381 23.8706C25.0885 24.2229 24.9026 24.6214 24.792 25.051C22.5573 24.6968 19.7376 23.8667 18.4135 22.5427C16.1258 20.2535 15.7027 16.9522 17.47 15.1848ZM13.0631 25.9989C13.0631 24.2757 14.3319 22.7397 16.3144 21.9825C16.6446 22.5012 17.0346 23.0004 17.4954 23.4612C18.8221 24.7879 21.0352 25.5535 22.8058 25.98C21.0502 26.4077 18.8598 27.1721 17.5461 28.485C17.0683 28.9627 16.6653 29.4815 16.3279 30.021C14.3377 29.2664 13.0631 27.7272 13.0631 25.9989ZM20.9313 37.8178C19.5727 37.9718 18.3586 37.5988 17.5221 36.7622C15.7541 34.9935 16.1779 31.6929 18.4658 29.4043C19.784 28.0867 22.5114 27.2657 24.8073 26.9011C24.9125 27.2853 25.0764 27.6461 25.2948 27.9678L23.0933 30.17C22.8391 30.4242 22.8391 30.835 23.0933 31.0892C23.22 31.2159 23.3864 31.2796 23.5528 31.2796C23.7193 31.2796 23.8856 31.2159 24.0124 31.0892L26.2068 28.8942C26.5591 29.1438 26.9582 29.3296 27.3878 29.4402C27.0329 31.6794 26.2035 34.4939 24.8795 35.8179C23.751 36.9455 22.3483 37.656 20.9313 37.8178ZM28.3354 41.1693C26.6129 41.1693 25.0777 39.9018 24.3204 37.9212C24.8437 37.5864 25.3422 37.1925 25.7985 36.7362C26.9906 35.5441 27.8168 33.4674 28.316 31.4191C28.7431 33.1729 29.5075 35.3698 30.8224 36.6841C31.295 37.1567 31.8124 37.5642 32.357 37.9068C31.601 39.8966 30.0631 41.1693 28.3354 41.1693ZM40.1829 34.1337C40.1317 35.1607 39.7565 36.0524 39.0988 36.7109C38.2629 37.5474 37.0532 37.9264 35.6896 37.7665C34.2712 37.6047 32.8692 36.8942 31.7414 35.7665C30.4246 34.4496 29.6023 31.719 29.2377 29.4257C29.6218 29.3205 29.9826 29.1559 30.3043 28.9382L32.5066 31.1405C32.6333 31.2672 32.7997 31.3309 32.9662 31.3309C33.1326 31.3309 33.2989 31.2672 33.4257 31.1405C33.6799 30.8863 33.6799 30.4755 33.4257 30.2213L31.2313 28.0263C31.4809 27.6734 31.6668 27.2749 31.7774 26.8446C34.0082 27.1988 36.8324 28.0303 38.1551 29.3536C39.5064 30.7049 40.265 32.491 40.1829 34.1337ZM40.2525 29.9145C39.9177 29.3887 39.5271 28.8882 39.0734 28.4345C37.7473 27.1078 35.5302 26.3422 33.7622 25.9164C35.5191 25.4887 37.7096 24.7236 39.0226 23.4106C39.5003 22.9328 39.9034 22.4141 40.2407 21.8746C42.2316 22.6298 43.5063 24.1683 43.5063 25.8968C43.5064 27.6212 42.2363 29.1579 40.2525 29.9145Z" fill="black"/>
<path d="M28.1034 2.02795C20.2963 2.02795 13.3536 5.80049 9.0025 11.6187C8.98625 11.6175 8.97191 11.609 8.95502 11.609H1.35789V0.65C1.35789 0.29123 1.0673 0 0.707892 0C0.348488 0 0.0578918 0.290596 0.0578918 0.65V51.35C0.0578918 51.7094 0.348488 52 0.707892 52C1.0673 52 1.35789 51.7094 1.35789 51.35V39.884H8.8381C13.1775 45.8315 20.1949 49.7054 28.1035 49.7054C41.2485 49.7054 51.9422 39.0117 51.9422 25.8667C51.9422 12.7217 41.2477 2.02795 28.1034 2.02795ZM1.35789 38.5846V12.9096H8.10939C5.68166 16.6432 4.26461 21.0911 4.26461 25.8673C4.26461 30.5409 5.62187 34.9011 7.95526 38.5846H1.35789ZM28.1034 48.4054C15.6754 48.4054 5.56461 38.2946 5.56461 25.8667C5.56461 13.4388 15.6754 3.32795 28.1034 3.32795C40.5313 3.32795 50.6421 13.4388 50.6421 25.8667C50.6421 38.2946 40.5314 48.4054 28.1034 48.4054Z" fill="black"/>
</g>
<defs>
<clipPath id="clip0_115_821">
<rect width="52" height="52" fill="white"/>
</clipPath>
</defs>
</svg>
