<svg width="50" height="50" viewBox="0 0 50 50" fill="none" xmlns="http://www.w3.org/2000/svg">
<g clip-path="url(#clip0_115_833)">
<path d="M22.3648 16.6406C22.3639 16.6406 22.3631 16.6406 22.3623 16.6406C21.9589 16.6406 21.6312 16.967 21.6299 17.3707L21.6271 18.2098C21.6258 18.6143 21.9526 18.9433 22.3571 18.9446H22.3596C22.763 18.9446 23.0906 18.6183 23.092 18.2146L23.0947 17.3754C23.0961 16.971 22.7693 16.642 22.3648 16.6406Z" fill="black"/>
<path d="M14.8408 16.6406C14.4363 16.6406 14.1084 16.9685 14.1084 17.373V18.2122C14.1084 18.6167 14.4363 18.9446 14.8408 18.9446C15.2453 18.9446 15.5732 18.6167 15.5732 18.2122V17.373C15.5732 16.9685 15.2453 16.6406 14.8408 16.6406Z" fill="black"/>
<path d="M20.8031 22.6781C20.4598 22.4645 20.008 22.5696 19.7943 22.9128C19.5376 23.325 19.0801 23.581 18.6002 23.581C18.1203 23.581 17.6627 23.325 17.4061 22.9128C17.1924 22.5694 16.7407 22.4644 16.3972 22.6781C16.0539 22.8919 15.9488 23.3436 16.1625 23.687C16.6923 24.5379 17.6036 25.0459 18.6002 25.0459C19.5968 25.0459 20.5081 24.5379 21.0378 23.687C21.2516 23.3436 21.1465 22.8919 20.8031 22.6781Z" fill="black"/>
<path d="M12.3547 8.84159C12.4785 9.1091 12.7432 9.26664 13.0199 9.26664C13.1228 9.26664 13.2274 9.24481 13.3269 9.19874C13.694 9.02889 13.854 8.59363 13.6841 8.22647L12.8706 6.46799C12.7007 6.10092 12.2656 5.94099 11.8984 6.11084C11.5312 6.28069 11.3713 6.71595 11.5412 7.08312L12.3547 8.84159Z" fill="black"/>
<path d="M41.291 33.4043C41.3173 33.3642 41.3398 33.3223 41.3574 33.2783C41.3759 33.2334 41.3906 33.1875 41.3994 33.1406C41.4091 33.0938 41.4141 33.0459 41.4141 32.998C41.4141 32.9503 41.4091 32.9014 41.3994 32.8545C41.3906 32.8077 41.376 32.7617 41.3574 32.7179C41.3398 32.6728 41.3173 32.6309 41.291 32.5908C41.2637 32.5508 41.2334 32.5137 41.1992 32.4795C41.0625 32.3438 40.874 32.2656 40.6816 32.2656C40.4892 32.2656 40.3007 32.3438 40.164 32.4795C40.1298 32.5137 40.0996 32.5508 40.0722 32.5908C40.0459 32.6309 40.0234 32.6728 40.0049 32.7179C39.9873 32.7617 39.9726 32.8077 39.9639 32.8545C39.9541 32.9014 39.9492 32.9503 39.9492 32.998C39.9492 33.0459 39.9541 33.0938 39.9639 33.1406C39.9726 33.1875 39.9873 33.2334 40.0049 33.2783C40.0234 33.3223 40.0459 33.3643 40.0722 33.4043C40.0996 33.4444 40.1298 33.4824 40.164 33.5157C40.1972 33.5498 40.2353 33.5801 40.2754 33.6065C40.3144 33.6328 40.3574 33.6563 40.4013 33.6738C40.4453 33.6924 40.4921 33.7061 40.539 33.7159C40.5859 33.7256 40.6337 33.7305 40.6816 33.7305C40.874 33.7305 41.0634 33.6524 41.1992 33.5157C41.2334 33.4824 41.2637 33.4444 41.291 33.4043Z" fill="black"/>
<path d="M49.3638 37.6086C47.7527 36.8114 45.7129 36.9536 44.2883 37.9625C43.2323 38.7104 42.6538 39.8239 42.6541 41.0703L41.4141 41.7736V37.4431C42.3477 37.227 43.0841 36.5992 43.4131 35.7216C44.511 35.3118 45.2207 34.2685 45.2207 32.9978C45.2207 31.727 44.5109 30.6837 43.4129 30.2739C43.0018 29.1789 41.9563 28.4715 40.6831 28.4715C39.4098 28.4715 38.3643 29.1789 37.9532 30.2739C36.8552 30.6837 36.1454 31.727 36.1454 32.9978C36.1454 34.2685 36.8551 35.3118 37.953 35.7216C38.2817 36.5983 39.0169 37.2257 39.9492 37.4423V43.0445C39.9492 43.0448 39.9492 43.0451 39.9492 43.0453V44.9157H36.9745V43.0144C36.9745 36.6217 31.7609 31.4207 25.3526 31.4207H24.5163V28.4228C25.8675 28.9439 27.2198 29.3255 28.7255 29.3255C30.0805 29.3255 31.5599 29.0167 33.2738 28.2234C35.0408 27.4042 35.8153 26.9432 36.038 26.2085C36.2408 25.5392 35.8935 24.9706 35.4539 24.2509C34.6356 22.9111 33.1123 20.4171 33.1123 14.4738C33.1123 6.4929 26.6022 0 18.6002 0C14.7401 0 11.1005 1.50947 8.3517 4.25043C5.60221 6.99205 4.08797 10.6228 4.08797 14.4738C4.08797 20.4161 2.56524 22.9103 1.74713 24.2502C1.30758 24.9702 0.960395 25.5389 1.16334 26.2083C1.38617 26.943 2.16127 27.4041 3.92971 28.2236C7.54665 29.8974 10.1175 29.4125 12.684 28.4229V31.4207H11.8477C5.44094 31.4207 0.228638 36.6217 0.228638 43.0144V49.2676C0.228638 49.6721 0.556558 50 0.96106 50C1.36556 50 1.69348 49.6721 1.69348 49.2676V43.0144C1.69348 39.6329 3.36369 36.6334 5.92409 34.7927L6.75068 41.8693C5.32002 43.6478 4.98162 47.5524 6.62861 49.7118C6.77275 49.9007 6.99085 50 7.21149 50C7.36636 50 7.52248 49.9511 7.65514 49.85C7.97677 49.6046 8.03866 49.145 7.79332 48.8234C6.45537 47.0693 6.9651 43.6823 8.03022 42.6336C8.19124 42.475 8.27007 42.2511 8.24384 42.0267L7.30151 33.9593C7.95915 33.6294 8.65734 33.3688 9.3866 33.187L10.3765 41.3661C10.421 41.7338 10.7332 42.0105 11.1036 42.0105H26.0967C26.4672 42.0105 26.7793 41.7338 26.8238 41.3661L27.8138 33.1869C28.5431 33.3686 29.2413 33.629 29.899 33.9588L28.9592 42.0269C28.9331 42.251 29.0117 42.4747 29.1723 42.6331C30.237 43.6836 30.7457 47.0713 29.4074 48.8229C29.1618 49.1444 29.2233 49.6039 29.5447 49.8496C29.6775 49.951 29.8337 50 29.9889 50C30.2092 50 30.4272 49.9009 30.5714 49.7123C32.2193 47.5555 31.8824 43.6499 30.4523 41.8696L31.2767 34.7919C33.8385 36.6325 35.5096 39.6324 35.5096 43.0144V44.9293C34.9484 45.0112 34.5156 45.4928 34.5156 46.0746V48.8383C34.5156 49.4789 35.0372 50 35.6784 50H45.6877C46.3288 50 46.8505 49.4789 46.8505 48.8383V46.0746C46.8505 45.4355 46.3288 44.9157 45.6877 44.9157H41.4141V43.4576L43.38 42.3426C43.9733 42.691 44.6202 42.8678 45.279 42.8678C45.8232 42.8678 46.3755 42.7472 46.912 42.5036C48.4983 41.7835 49.6467 40.1004 49.7696 38.3154C49.79 38.0193 49.6297 37.7402 49.3638 37.6086ZM18.6002 28.1557C13.7896 28.1557 9.87581 24.253 9.87581 19.4558V16.6643C9.87581 15.2498 10.1832 14.3132 10.8155 13.8011C11.3286 13.3855 12.0845 13.227 12.9983 13.227C14.417 13.227 16.2161 13.6091 18.0781 14.0045C21.0417 14.6338 24.3626 15.3391 27.3245 14.8135V19.4558C27.3245 24.253 23.4108 28.1557 18.6002 28.1557ZM14.1489 28.5979C15.4945 29.2526 17.005 29.6205 18.6002 29.6205C20.1953 29.6205 21.7058 29.2526 23.0514 28.5979V31.8443C21.4435 33.3454 19.4961 33.5353 18.1188 33.42C16.257 33.2642 14.7126 32.4815 14.1489 31.8924V28.5979ZM4.5453 26.8944C4.10379 26.6898 2.78548 26.0789 2.57505 25.7929C2.60982 25.6484 2.82348 25.2984 2.99739 25.0135C3.89045 23.5507 5.55281 20.8279 5.55281 14.4738C5.55281 7.30066 11.4058 1.46484 18.6002 1.46484C25.7945 1.46484 31.6475 7.30066 31.6475 14.4738C31.6475 20.829 33.3104 23.5517 34.2038 25.0144C34.3777 25.2992 34.5913 25.649 34.6262 25.7934C34.4158 26.0794 33.0987 26.6899 32.6581 26.8942C29.6159 28.3024 27.5355 27.9937 25.2623 27.1408C27.4213 25.2755 28.7893 22.522 28.7893 19.4558V13.8978C28.7893 13.6688 28.6823 13.4531 28.4999 13.3145C28.3176 13.1761 28.0809 13.131 27.8605 13.1922C25.0239 13.982 21.4954 13.2327 18.3824 12.5716C14.8214 11.8154 11.7462 11.1624 9.89351 12.6628C8.89592 13.4708 8.41097 14.7797 8.41097 16.6643V19.4558C8.41097 22.522 9.77896 25.2755 11.938 27.1407C9.66571 27.9932 7.58611 28.3016 4.5453 26.8944ZM25.4476 40.5457H11.7527L10.8318 32.9361C11.166 32.9028 11.5049 32.8855 11.8477 32.8855H13.0709C14.0175 33.8972 15.997 34.7124 17.9966 34.8798C18.2566 34.9015 18.5139 34.9123 18.7682 34.9123C20.8232 34.9123 22.6778 34.2064 24.0812 32.8855H25.3526C25.6955 32.8855 26.0343 32.9028 26.3686 32.9361L25.4476 40.5457ZM45.3856 48.5352H35.9805V46.3805H45.3856V48.5352ZM39.2619 34.9864C39.2038 34.6964 38.977 34.4698 38.687 34.4119C37.8923 34.2534 37.6102 33.551 37.6102 32.9978C37.6102 32.4446 37.8923 31.7422 38.687 31.5837C38.977 31.5258 39.2037 31.2993 39.2619 31.0094C39.4207 30.2173 40.1267 29.9363 40.6831 29.9363C41.2393 29.9363 41.9454 30.2173 42.1042 31.0094C42.1624 31.2993 42.3891 31.5258 42.6791 31.5837C43.4738 31.7422 43.7559 32.4446 43.7559 32.9978C43.7559 33.551 43.4738 34.2534 42.6791 34.4119C42.389 34.4698 42.1623 34.6964 42.1042 34.9864C41.9453 35.7799 41.2393 36.0614 40.6831 36.0614C40.1268 36.0614 39.4208 35.7799 39.2619 34.9864ZM46.3065 41.1698C45.8598 41.3725 45.0144 41.6072 44.1178 41.0775C44.1137 40.0459 44.7376 39.4393 45.1349 39.1579C45.9973 38.5471 47.1884 38.3934 48.2333 38.7273C47.9955 39.7902 47.2649 40.7348 46.3065 41.1698Z" fill="black"/>
</g>
<defs>
<clipPath id="clip0_115_833">
<rect width="50" height="50" fill="white"/>
</clipPath>
</defs>
</svg>
