<svg width="43" height="45" viewBox="0 0 43 45" fill="none" xmlns="http://www.w3.org/2000/svg">
<path d="M5.44894 12.2974C5.44894 13.5209 4.44793 14.5219 3.22447 14.5219C2.00101 14.5219 1 13.5209 1 12.2974V11.076C1 9.85257 2.00101 8.85156 3.22447 8.85156C4.44793 8.85156 5.44894 9.85257 5.44894 11.076" stroke="#2C2C2C" stroke-width="1.6" stroke-miterlimit="22.9256" stroke-linecap="round" stroke-linejoin="round"/>
<path d="M5.44894 17.9672C5.44894 19.1907 4.44793 20.1917 3.22447 20.1917C2.00101 20.1917 1 19.1907 1 17.9672V16.746C1 15.5225 2.00101 14.5215 3.22447 14.5215C4.44793 14.5215 5.44894 15.5225 5.44894 16.746" stroke="#2C2C2C" stroke-width="1.6" stroke-miterlimit="22.9256" stroke-linecap="round" stroke-linejoin="round"/>
<path d="M5.44894 23.6372C5.44894 24.8606 4.44793 25.8616 3.22447 25.8616C2.00101 25.8616 1 24.8606 1 23.6372V22.4159C1 21.1924 2.00101 20.1914 3.22447 20.1914C4.44793 20.1914 5.44894 21.1924 5.44894 22.4159" stroke="#2C2C2C" stroke-width="1.6" stroke-miterlimit="22.9256" stroke-linecap="round" stroke-linejoin="round"/>
<path d="M5.44894 29.3072C5.44894 30.5306 4.44793 31.5316 3.22447 31.5316C2.00101 31.5316 1 30.5306 1 29.3072V28.0858C1 26.8623 2.00101 25.8613 3.22447 25.8613C4.44793 25.8613 5.44894 26.8623 5.44894 28.0858" stroke="#2C2C2C" stroke-width="1.6" stroke-miterlimit="22.9256" stroke-linecap="round" stroke-linejoin="round"/>
<path fill-rule="evenodd" clip-rule="evenodd" d="M7.36806 1H26.2106C27.2661 1 28.1298 1.86362 28.1298 2.91915V37.4638C28.1298 38.5194 27.2661 39.383 26.2106 39.383H7.36806C6.31253 39.383 5.44891 38.5194 5.44891 37.4638V2.91915C5.44891 1.86362 6.31253 1 7.36806 1Z" stroke="#2C2C2C" stroke-width="1.6" stroke-miterlimit="22.9256" stroke-linecap="round" stroke-linejoin="round"/>
<path d="M28.1437 25.676C28.9437 24.3026 30.067 23.4217 31.532 22.8449L31.9682 21.1749L29.6852 18.8906C27.6414 16.8468 27.6414 13.5332 29.6852 11.4893L37.1225 18.4917C37.8224 19.1507 38.1647 19.9157 38.0199 21.0119L36.3299 33.7961L42.0001 43.7447" stroke="#2C2C2C" stroke-width="1.6" stroke-miterlimit="22.9256" stroke-linecap="round" stroke-linejoin="round"/>
<path d="M14.8702 4.83789H18.7085" stroke="#2C2C2C" stroke-width="1.6" stroke-miterlimit="22.9256" stroke-linecap="round" stroke-linejoin="round"/>
<path d="M16.8561 39.5L19.2753 43.7446" stroke="#2C2C2C" stroke-width="1.6" stroke-miterlimit="22.9256" stroke-linecap="round" stroke-linejoin="round"/>
<path d="M16.3517 35.5449H17.224" stroke="#2C2C2C" stroke-width="1.6" stroke-miterlimit="22.9256" stroke-linecap="round" stroke-linejoin="round"/>
<path fill-rule="evenodd" clip-rule="evenodd" d="M16.7894 22.852C17.8464 22.852 18.7085 21.9898 18.7085 20.9328C18.7085 19.8758 17.8464 19.0137 16.7894 19.0137C15.7323 19.0137 14.8702 19.8758 14.8702 20.9328C14.8702 21.9898 15.7324 22.852 16.7894 22.852Z" stroke="#2C2C2C" stroke-width="1.6" stroke-miterlimit="22.9256" stroke-linecap="round" stroke-linejoin="round"/>
<path fill-rule="evenodd" clip-rule="evenodd" d="M9.28723 15.6115H13.5617L14.8703 13.6924H18.7085L20.0171 15.6115H24.2915V26.6903H9.28723V15.6115Z" stroke="#2C2C2C" stroke-width="1.6" stroke-miterlimit="22.9256" stroke-linecap="round" stroke-linejoin="round"/>
</svg>
