<svg width="43" height="42" viewBox="0 0 43 42" fill="none" xmlns="http://www.w3.org/2000/svg">
<path fill-rule="evenodd" clip-rule="evenodd" d="M33.5203 17.5632V6.26056C33.5203 5.76658 33.1191 5.36607 32.6244 5.36607C30.1548 5.36607 28.1453 3.36002 28.1453 0.894491C28.1453 0.400512 27.7442 0 27.2494 0H6.26996C5.77524 0 5.37413 0.400512 5.37413 0.894491C5.37413 3.36002 3.36506 5.36607 0.895833 5.36607C0.401113 5.36607 0 5.76658 0 6.26056V22.8261C0 32.0549 15.7243 39.1947 16.394 39.4939C16.5104 39.5458 16.635 39.572 16.7601 39.572C16.8848 39.572 17.009 39.5463 17.1254 39.4943C17.1988 39.4614 18.8043 38.7395 20.9983 37.4804C23.2781 40.2389 26.727 42 30.5804 42C37.4286 42 43 36.437 43 29.5986C43 23.7734 38.9516 18.8869 33.5203 17.5632ZM16.7614 37.6905C14.4335 36.5793 1.79167 30.2017 1.79167 22.8261V7.09128C4.53341 6.6982 6.70825 4.52661 7.10193 1.78898H26.4175C26.8116 4.52661 28.9864 6.6982 31.7286 7.09128V17.2556C31.35 17.2207 30.9679 17.1975 30.5804 17.1975C23.7317 17.1975 18.1603 22.7606 18.1603 29.5986C18.1603 31.9463 18.829 34.1356 19.9685 36.0091C18.5134 36.8376 17.3295 37.4211 16.7614 37.6905ZM30.5804 40.211C24.7198 40.211 19.952 35.4503 19.952 29.5986C19.952 23.7472 24.7198 18.9865 30.5804 18.9865C36.4405 18.9865 41.2083 23.7472 41.2083 29.5986C41.2083 35.4503 36.4405 40.211 30.5804 40.211ZM31.0002 25.1042C32.1072 25.1042 33.0079 25.8942 33.0079 26.8655C33.0079 27.3479 33.4539 27.7391 34.004 27.7391C34.554 27.7391 35 27.3479 35 26.8655C35 25.2343 33.7186 23.8715 31.9963 23.4804V22.8736C31.9963 22.3912 31.5503 22 31.0002 22C30.4502 22 30.0042 22.3912 30.0042 22.8736V23.4804C28.2818 23.8715 27 25.2343 27 26.8655C27 28.8 28.7946 30.3736 31.0002 30.3736C32.1072 30.3736 33.0079 31.1636 33.0079 32.1349C33.0079 33.1062 32.1072 33.8963 31.0002 33.8963C29.8928 33.8963 28.9921 33.1062 28.9921 32.1349C28.9921 31.6525 28.5461 31.2613 27.996 31.2613C27.446 31.2613 27 31.6525 27 32.1349C27 33.7661 28.2818 35.1289 30.0042 35.52V36.1264C30.0042 36.6088 30.4502 37 31.0002 37C31.5503 37 31.9963 36.6088 31.9963 36.1264V35.52C33.7186 35.1289 35 33.7661 35 32.1349C35 30.2004 33.2058 28.6264 31.0002 28.6264C29.8928 28.6264 28.9921 27.8364 28.9921 26.8655C28.9921 25.8942 29.8928 25.1042 31.0002 25.1042ZM20.4248 15.2194C20.7852 14.9269 21.3692 14.9269 21.7296 15.2194C22.0901 15.512 22.0901 15.986 21.7296 16.2786L14.9519 21.7806C14.7789 21.921 14.5442 22 14.2995 22C14.0548 22 13.8201 21.921 13.647 21.7806L10.2704 19.0397C9.90988 18.7471 9.90988 18.2731 10.2704 17.9805C10.6308 17.6879 11.2148 17.6879 11.5752 17.9805L14.2995 20.1918L20.4248 15.2194Z" fill="#2C2C2C"/>
</svg>
